<svg xmlns="http://www.w3.org/2000/svg" viewBox="0 0 120 100"><defs><linearGradient id="g80" x1="25%" y1="7%" x2="75%" y2="93%">
    <stop offset="0%" stop-color="rgba(148,180,232,1)"/>
    <stop offset="100%" stop-color="rgba(59,91,143,1)"/>
  </linearGradient></defs>
    <ellipse cx="60" cy="96" rx="30" ry="6" fill="#000000" opacity="0.15"/>
    <path d="M 60 30 C 30 10 0 14 -10 0 C 0 20 20 24 34 34 C 14 30 -6 24 -16 8
              C -6 30 20 42 44 44 Z" fill="url(#g80)" stroke="rgba(50,90,160,1)" stroke-width="2.5" stroke-linejoin="round"/>
    <path d="M 60 30 C 90 10 120 14 130 0 C 120 20 100 24 86 34 C 106 30 126 24 136 8
              C 126 30 100 42 76 44 Z" fill="url(#g80)" stroke="rgba(50,90,160,1)" stroke-width="2.5" stroke-linejoin="round"/>
    <ellipse cx="60" cy="50" rx="26" ry="30" fill="url(#g80)" stroke="rgba(50,90,160,1)" stroke-width="3"/>
    <path d="M 50 78 L 44 92 M 70 78 L 76 92" stroke="rgba(50,90,160,1)" stroke-width="4" stroke-linecap="round"/>
    <circle cx="52" cy="46" r="4.5" fill="rgba(255,255,200,1)"/>
    <circle cx="68" cy="46" r="4.5" fill="rgba(255,255,200,1)"/>
  </svg>